<svg width="48" height="52" viewBox="0 0 48 52" fill="none" xmlns="http://www.w3.org/2000/svg">
<path d="M10.7075 8.50006C7.295 8.65506 5.1875 9.13506 3.6975 10.6276C1.5 12.8276 1.5 16.3701 1.5 23.4526V35.9751C1.5 43.0576 1.5 46.6001 3.6975 48.8001C5.8925 51.0001 9.43 51.0001 16.5 51.0001H31.5C38.57 51.0001 42.1075 51.0001 44.3025 48.8001C46.4975 46.6001 46.5 43.0576 46.5 35.9751V23.4501C46.5 16.3676 46.5 12.8251 44.3025 10.6251C42.8125 9.13256 40.7025 8.65006 37.2925 8.49756" stroke="#FE3F3F" stroke-width="2" stroke-linecap="round" stroke-linejoin="round"/>
<path d="M19 41H29M22.75 21L25.25 13.5M11.5625 12.35C10.3625 7.65 9.76251 5.3 10.7375 3.575C10.9988 3.11551 11.3312 2.70036 11.7225 2.345C13.195 1 15.6725 1 20.625 1H27.375C32.3275 1 34.805 1 36.2775 2.345C36.67 2.7025 37.0025 3.12 37.2625 3.5775C38.2375 5.3025 37.6375 7.6525 36.4375 12.3525C35.4775 16.0975 35 17.97 33.72 19.2025C33.37 19.5408 32.9858 19.835 32.5675 20.085C31.0325 21 29.0575 21 25.11 21H22.89C18.94 21 16.965 21 15.4325 20.085C15.0176 19.8354 14.6319 19.5402 14.2825 19.205C13 17.97 12.52 16.0975 11.5625 12.35Z" stroke="#FE3F3F" stroke-width="2" stroke-linecap="round" stroke-linejoin="round"/>
</svg>
